# xmcd
#
# Track frame offsets:
#	183
#	18570
#	32963
#	48015
#	62935
#	76273
#	90080
#	102783
#	115055
#	129435
#	142280
#	157198
#	171045
#	186385
#	203093
#	216788
#	231355
#	241838
#
# Disc length: 3460 seconds
#
# Revision: 0
# Processed by: cddbd v1.5.2PL0 Copyright (c) Steve Scherf et al.
# Submitted via: dBpowerAMP V4.0
#
DISCID=f50d8212
DTITLE=Don Williams - Love Stories
DYEAR=1900
DGENRE=Country
TTITLE0=I believe in you
TTITLE1=Listen to the radio
TTITLE2=Good to see you
TTITLE3=Love's endless law
TTITLE4=Yellow moon
TTITLE5=Fool fool heart
TTITLE6=Falling again
TTITLE7=Years from now
TTITLE8=I'm still looking for you
TTITLE9=The story of my life
TTITLE10=You get to me
TTITLE11=Stay young
TTITLE12=Now and then
TTITLE13=Love is on a roll
TTITLE14=Miracles
TTITLE15=Ain't it amazing
TTITLE16=Especially you
TTITLE17=Only love
EXTD=
EXTT0=
EXTT1=
EXTT2=
EXTT3=
EXTT4=
EXTT5=
EXTT6=
EXTT7=
EXTT8=
EXTT9=
EXTT10=
EXTT11=
EXTT12=
EXTT13=
EXTT14=
EXTT15=
EXTT16=
EXTT17=
PLAYORDER=
